<svg xmlns="http://www.w3.org/2000/svg" width="80.337" height="87.059" viewBox="0 0 80.337 87.059">
  <g id="Groupe_3415" data-name="Groupe 3415" transform="translate(-766.891 -243.499)">
    <path id="Tracé_16" data-name="Tracé 16" d="M0,0-.382-60.681a8.912,8.912,0,0,0-8.966-8.852l-60.681.385a8.91,8.91,0,0,0-8.852,8.963L-78.5.5a8.908,8.908,0,0,0,8.963,8.852l23.889-.15c.023.029.028.065.051.088l5.281,6.084a1.478,1.478,0,0,0,2.319-.016l5.2-6.148c.023-.026.028-.062.051-.091l23.889-.149A8.911,8.911,0,0,0,0,0" transform="translate(846.477 313.736)" fill="none"/>
    <path id="Tracé_17" data-name="Tracé 17" d="M0,0-.382-60.681a8.912,8.912,0,0,0-8.966-8.852l-60.681.385a8.91,8.91,0,0,0-8.852,8.963L-78.5.5a8.908,8.908,0,0,0,8.963,8.852l23.889-.15c.023.029.028.065.051.088l5.281,6.084a1.478,1.478,0,0,0,2.319-.016l5.2-6.148c.023-.026.028-.062.051-.091l23.889-.149A8.911,8.911,0,0,0,0,0Z" transform="translate(846.477 313.736)" fill="none" stroke="#1d1d1b" stroke-width="1.291"/>
    <path id="Tracé_18" data-name="Tracé 18" d="M720.711-901.134l-79.789.5.547,86.559,79.789-.506Z" transform="translate(125.969 1144.633)" fill="none"/>
    <path id="Tracé_19" data-name="Tracé 19" d="M0,0A.676.676,0,0,1-.232-.041.668.668,0,0,1-.625-.9L.581-4.155a.666.666,0,0,1,.857-.392.668.668,0,0,1,.395.857L.625-.436A.663.663,0,0,1,0,0" transform="translate(801.262 262.708)"/>
    <path id="Tracé_20" data-name="Tracé 20" d="M0,0A.67.67,0,0,1-.607-.39a.666.666,0,0,1,.328-.883L2.877-2.722a.666.666,0,0,1,.883.328.662.662,0,0,1-.328.883L.279-.062A.68.68,0,0,1,0,0" transform="translate(805.064 266.234)"/>
    <path id="Tracé_21" data-name="Tracé 21" d="M0,0A.67.67,0,0,1-.607-.39a.666.666,0,0,1,.328-.883L2.877-2.722a.666.666,0,0,1,.883.328.667.667,0,0,1-.328.886L.279-.062A.677.677,0,0,1,0,0" transform="translate(789.595 273.337)"/>
    <path id="Tracé_22" data-name="Tracé 22" d="M0,0A.672.672,0,0,1-.232-.041L-3.486-1.247a.67.67,0,0,1-.395-.858A.67.67,0,0,1-3.024-2.5L.232-1.294a.667.667,0,0,1,.393.858A.663.663,0,0,1,0,0" transform="translate(792.553 266.706)"/>
    <path id="Tracé_23" data-name="Tracé 23" d="M0,0A.67.67,0,0,1-.607-.39L-2.055-3.543a.669.669,0,0,1,.327-.886A.672.672,0,0,1-.842-4.1L.607-.945a.668.668,0,0,1-.328.883A.677.677,0,0,1,0,0" transform="translate(796.079 262.903)"/>
    <path id="Tracé_24" data-name="Tracé 24" d="M0,0A.664.664,0,0,1-.232-.041.669.669,0,0,1-.607-.39L-5.885-11.917-12.643-5.89a.676.676,0,0,1-.718.111.667.667,0,0,1-.392-.61V-40.96a.665.665,0,0,1,.387-.607.67.67,0,0,1,.715.1L13.523-18.879a.666.666,0,0,1,.2.695.662.662,0,0,1-.552.47L4.2-16.534,9.477-5.007a.67.67,0,0,1-.331.886L.279-.059A.717.717,0,0,1,0,0" transform="translate(811.994 309.355)"/>
    <path id="Tracé_25" data-name="Tracé 25" d="M640.922-814.075h80.337v-87.059H640.922Z" transform="translate(125.969 1144.633)" fill="none"/>
  </g>
</svg>
