<svg xmlns="http://www.w3.org/2000/svg" width="80.337" height="87.15" viewBox="0 0 80.337 87.15">
  <g id="Groupe_3474" data-name="Groupe 3474" transform="translate(-892.91 -668.334)">
    <g id="Groupe_3473" data-name="Groupe 3473">
      <g id="Groupe_3472" data-name="Groupe 3472">
        <g id="Groupe_3471" data-name="Groupe 3471">
          <g id="Groupe_3470" data-name="Groupe 3470">
            <g id="Groupe_3469" data-name="Groupe 3469">
              <g id="Groupe_3468" data-name="Groupe 3468">
                <g id="Groupe_3467" data-name="Groupe 3467">
                  <g id="Groupe_3466" data-name="Groupe 3466">
                    <g id="Groupe_3465" data-name="Groupe 3465">
                      <g id="Groupe_3464" data-name="Groupe 3464">
                        <g id="Groupe_3463" data-name="Groupe 3463">
                          <g id="Groupe_3462" data-name="Groupe 3462">
                            <g id="Groupe_3461" data-name="Groupe 3461">
                              <g id="Groupe_3460" data-name="Groupe 3460">
                                <path id="Tracé_56" data-name="Tracé 56" d="M0,0V-61.1a8.971,8.971,0,0,0-8.97-8.97h-61.1a8.971,8.971,0,0,0-8.97,8.97V0a8.971,8.971,0,0,0,8.97,8.97h24.052c.024.029.029.065.052.091l5.278,6.157a1.488,1.488,0,0,0,2.335,0l5.275-6.157c.024-.026.029-.062.052-.091H-8.97A8.971,8.971,0,0,0,0,0Z" transform="translate(972.597 739.051)" fill="rgba(0,0,0,0)" stroke="#1d1d1b" stroke-width="1.3"/>
                                <path id="Tracé_57" data-name="Tracé 57" d="M0,0A1.782,1.782,0,0,0-1.781,1.781V32.765A1.782,1.782,0,0,0,0,34.546H48.875a1.782,1.782,0,0,0,1.781-1.781V1.781A1.782,1.782,0,0,0,48.875,0ZM48.875,36.059H0a3.3,3.3,0,0,1-3.292-3.294V1.781A3.3,3.3,0,0,1,0-1.511H48.875a3.3,3.3,0,0,1,3.291,3.292V32.765a3.3,3.3,0,0,1-3.291,3.294" transform="translate(909.077 685.69)"/>
                                <path id="Tracé_58" data-name="Tracé 58" d="M0,0H-53.947A.756.756,0,0,1-54.7-.757a.755.755,0,0,1,.757-.754H0a.757.757,0,0,1,.757.754A.758.758,0,0,1,0,0" transform="translate(960.488 713.421)"/>
                                <path id="Tracé_59" data-name="Tracé 59" d="M1340.456-482.345h-52.85V-517.7h52.85Z" transform="translate(-380.517 1203.22)"/>
                                <path id="Tracé_60" data-name="Tracé 60" d="M0,0V1.6a1,1,0,0,1-1,1H-23.1a1,1,0,0,1-1-1V0a1,1,0,0,1,1-1H-1A1,1,0,0,1,0,0" transform="translate(945.562 728.162)"/>
                              </g>
                            </g>
                          </g>
                        </g>
                      </g>
                    </g>
                  </g>
                </g>
              </g>
            </g>
          </g>
        </g>
      </g>
    </g>
  </g>
</svg>
