<svg xmlns="http://www.w3.org/2000/svg" width="61.798" height="66.968" viewBox="0 0 61.798 66.968">
  <g id="Groupe_3501" data-name="Groupe 3501" transform="translate(-189.208 -78.219)">
    <g id="Groupe_3500" data-name="Groupe 3500">
      <g id="Groupe_3499" data-name="Groupe 3499">
        <g id="Groupe_3498" data-name="Groupe 3498">
          <g id="Groupe_3497" data-name="Groupe 3497">
            <g id="Groupe_3496" data-name="Groupe 3496">
              <g id="Groupe_3495" data-name="Groupe 3495">
                <g id="Groupe_3494" data-name="Groupe 3494">
                  <g id="Groupe_3493" data-name="Groupe 3493">
                    <g id="Groupe_3492" data-name="Groupe 3492">
                      <g id="Groupe_3491" data-name="Groupe 3491">
                        <path id="Tracé_7" data-name="Tracé 7" d="M0,0-.294-46.678a6.855,6.855,0,0,0-6.9-6.809l-46.677.3a6.855,6.855,0,0,0-6.81,6.9l.3,46.677a6.853,6.853,0,0,0,6.9,6.81l18.376-.116c.018.022.022.05.04.068l4.062,4.68a1.137,1.137,0,0,0,1.784-.012l4-4.73c.018-.019.022-.047.04-.069L-6.809,6.9A6.854,6.854,0,0,0,0,0" transform="translate(250.429 132.248)" fill="#fff"/>
                        <path id="Tracé_8" data-name="Tracé 8" d="M0,0-.294-46.678a6.855,6.855,0,0,0-6.9-6.809l-46.677.3a6.855,6.855,0,0,0-6.81,6.9l.3,46.677a6.853,6.853,0,0,0,6.9,6.81l18.376-.116c.018.022.022.05.04.068l4.062,4.68a1.137,1.137,0,0,0,1.784-.012l4-4.73c.018-.019.022-.047.04-.069L-6.809,6.9A6.854,6.854,0,0,0,0,0" transform="translate(250.429 132.248)"/>
                        <path id="Tracé_9" data-name="Tracé 9" d="M0,0-.294-46.678a6.855,6.855,0,0,0-6.9-6.809l-46.677.3a6.855,6.855,0,0,0-6.81,6.9l.3,46.677a6.853,6.853,0,0,0,6.9,6.81l18.376-.116c.018.022.022.05.04.068l4.062,4.68a1.137,1.137,0,0,0,1.784-.012l4-4.73c.018-.019.022-.047.04-.069L-6.809,6.9A6.854,6.854,0,0,0,0,0Z" transform="translate(250.429 132.248)" fill="none" stroke="#1d1d1b" stroke-width="0.993"/>
                        <path id="Tracé_10" data-name="Tracé 10" d="M189.585-946l-61.377.385.421,66.583,61.377-.389Z" transform="translate(61 1024.22)" fill="none"/>
                        <path id="Tracé_11" data-name="Tracé 11" d="M0,0H-6.192L-3.2,7.985,9.668,38.291h7.059Z" transform="translate(224.328 88.363)" fill="#fff"/>
                        <path id="Tracé_12" data-name="Tracé 12" d="M0,0H7.981L3.957-9.413Z" transform="translate(201.065 126.675)" fill="#fff"/>
                      </g>
                    </g>
                  </g>
                </g>
              </g>
            </g>
          </g>
        </g>
      </g>
    </g>
  </g>
</svg>
