<svg xmlns="http://www.w3.org/2000/svg" width="80.987" height="87.152" viewBox="0 0 80.987 87.152">
  <g id="Groupe_3490" data-name="Groupe 3490" transform="translate(-1181.986 -502.923)">
    <g id="Groupe_3489" data-name="Groupe 3489">
      <g id="Groupe_3488" data-name="Groupe 3488">
        <g id="Groupe_3487" data-name="Groupe 3487">
          <g id="Groupe_3486" data-name="Groupe 3486">
            <g id="Groupe_3485" data-name="Groupe 3485">
              <g id="Groupe_3484" data-name="Groupe 3484">
                <g id="Groupe_3483" data-name="Groupe 3483">
                  <g id="Groupe_3482" data-name="Groupe 3482">
                    <g id="Groupe_3481" data-name="Groupe 3481">
                      <g id="Groupe_3480" data-name="Groupe 3480">
                        <g id="Groupe_3479" data-name="Groupe 3479">
                          <g id="Groupe_3478" data-name="Groupe 3478">
                            <g id="Groupe_3477" data-name="Groupe 3477">
                              <g id="Groupe_3476" data-name="Groupe 3476">
                                <g id="Groupe_3475" data-name="Groupe 3475">
                                  <path id="Tracé_66" data-name="Tracé 66" d="M0,0V-61.1a8.971,8.971,0,0,0-8.97-8.97h-61.1a8.971,8.971,0,0,0-8.97,8.97V0a8.971,8.971,0,0,0,8.97,8.97h24.052c.024.029.029.065.052.091l5.278,6.157a1.488,1.488,0,0,0,2.335,0l5.275-6.157c.024-.026.029-.062.052-.091H-8.97A8.971,8.971,0,0,0,0,0Z" transform="translate(1262.323 573.64)" fill="rgba(0,0,0,0)" stroke="#1d1d1b" stroke-width="1.3"/>
                                  <path id="Tracé_67" data-name="Tracé 67" d="M0,0C-.091-.616-.195-1.238-.315-1.851c-.078-.414-.161-.822-.252-1.23a6.825,6.825,0,0,0-.229-.8c-.049-.14-.1-.275-.161-.408A6.407,6.407,0,0,0-2.74-6.666,7.759,7.759,0,0,0-6.708-8.375C-17.17-9.742-27.5-9.415-38.5-8.375a7.028,7.028,0,0,0-.957.167,6.267,6.267,0,0,0-.967.322l-.078.031A7.545,7.545,0,0,0-42.5-6.674a6.249,6.249,0,0,0-1.721,2.249c-.037.08-.073.164-.1.244s-.052.133-.078.2l-.052.151-.193.7c-.091.408-.176.817-.252,1.23q-.178.921-.314,1.851A45.108,45.108,0,0,0-45.7,5.6c-.008.177-.01.357-.01.536-.008.221-.008.439-.008.663v.047c0,.223.036.829.51,6.8.091.616.195,1.237.314,1.851.076.413.161.822.252,1.23a6.46,6.46,0,0,0,.229.8c.047.14.1.275.161.41a6.438,6.438,0,0,0,1.784,2.374A7.729,7.729,0,0,0-38.5,22.019c10.465,1.371,20.789,1.046,31.792,0A6.07,6.07,0,0,0-5.7,21.837c.039-.007.078-.018.12-.028a6.982,6.982,0,0,0,.985-.356.589.589,0,0,1,.063-.029,7.421,7.421,0,0,0,1.812-1.1A6.249,6.249,0,0,0-1,18.07c.039-.081.073-.164.107-.244s.052-.133.075-.2c.018-.05.037-.1.052-.148l.2-.7c.091-.409.174-.817.252-1.23q.18-.921.315-1.851A45.487,45.487,0,0,0,.491,8.044C.5,7.868.5,7.688.5,7.509c0-.237.005-.473.005-.71S.473,5.97,0,0" transform="translate(1245.72 536.001)"/>
                                  <path id="Tracé_68" data-name="Tracé 68" d="M0,0A.053.053,0,0,1,0,.091L-5.8,3.44l-5.8,3.349a.053.053,0,0,1-.078-.047V-6.653A.052.052,0,0,1-11.6-6.7l5.8,3.349Z" transform="translate(1230.081 542.78)" fill="#fff"/>
                                  <path id="Tracé_69" data-name="Tracé 69" d="M1587.245-449.663h80.337v-87.152h-80.337Z" transform="translate(-405.259 1039.738)" fill="rgba(0,0,0,0)"/>
                                </g>
                              </g>
                            </g>
                          </g>
                        </g>
                      </g>
                    </g>
                  </g>
                </g>
              </g>
            </g>
          </g>
        </g>
      </g>
    </g>
  </g>
</svg>
