<svg xmlns="http://www.w3.org/2000/svg" width="80.338" height="87.154" viewBox="0 0 80.338 87.154">
  <g id="Groupe_3415" data-name="Groupe 3415" transform="translate(-1273.076 -561.927)">
    <path id="Tracé_55" data-name="Tracé 55" d="M0,0V-61.1a8.971,8.971,0,0,0-8.97-8.97h-61.1a8.971,8.971,0,0,0-8.97,8.97V0a8.971,8.971,0,0,0,8.97,8.97h24.052c.024.029.029.065.052.091l5.278,6.157a1.488,1.488,0,0,0,2.335,0l5.275-6.157c.024-.026.029-.062.052-.091H-8.97A8.971,8.971,0,0,0,0,0" transform="translate(1352.763 632.647)" fill="#fff"/>
    <path id="Tracé_56" data-name="Tracé 56" d="M0,0V-61.1a8.971,8.971,0,0,0-8.97-8.97h-61.1a8.971,8.971,0,0,0-8.97,8.97V0a8.971,8.971,0,0,0,8.97,8.97h24.052c.024.029.029.065.052.091l5.278,6.157a1.488,1.488,0,0,0,2.335,0l5.275-6.157c.024-.026.029-.062.052-.091H-8.97A8.971,8.971,0,0,0,0,0Z" transform="translate(1352.763 632.647)" fill="none" stroke="#1d1d1b" stroke-width="1.3"/>
    <path id="Tracé_57" data-name="Tracé 57" d="M0,0A1.782,1.782,0,0,0-1.781,1.781V32.765A1.782,1.782,0,0,0,0,34.546H48.875a1.782,1.782,0,0,0,1.781-1.781V1.781A1.782,1.782,0,0,0,48.875,0ZM48.875,36.059H0a3.3,3.3,0,0,1-3.292-3.294V1.781A3.3,3.3,0,0,1,0-1.511H48.875a3.3,3.3,0,0,1,3.291,3.292V32.765a3.3,3.3,0,0,1-3.291,3.294" transform="translate(1288.594 581.211)"/>
    <path id="Tracé_58" data-name="Tracé 58" d="M0,0H-53.947A.756.756,0,0,1-54.7-.757a.755.755,0,0,1,.757-.754H0a.757.757,0,0,1,.757.754A.758.758,0,0,1,0,0" transform="translate(1340.005 608.942)"/>
    <path id="Tracé_59" data-name="Tracé 59" d="M1340.456-482.345h-52.85V-517.7h52.85Z" transform="translate(-1 1098.742)"/>
    <path id="Tracé_60" data-name="Tracé 60" d="M0,0V1.6a1,1,0,0,1-1,1H-23.1a1,1,0,0,1-1-1V0a1,1,0,0,1,1-1H-1A1,1,0,0,1,0,0" transform="translate(1325.078 623.684)"/>
    <path id="Tracé_61" data-name="Tracé 61" d="M1274.076-449.663h80.338v-87.152h-80.338Z" transform="translate(-1 1098.742)" fill="none"/>
  </g>
</svg>
