<svg xmlns="http://www.w3.org/2000/svg" width="80.337" height="87.15" viewBox="0 0 80.337 87.15">
  <g id="Groupe_3417" data-name="Groupe 3417" transform="translate(-639.92 -561.93)">
    <path id="Tracé_39" data-name="Tracé 39" d="M0,0V-61.1a8.971,8.971,0,0,0-8.97-8.97h-61.1a8.971,8.971,0,0,0-8.97,8.97V0a8.971,8.971,0,0,0,8.97,8.97h24.052c.024.029.029.065.052.091l5.278,6.157a1.488,1.488,0,0,0,2.335,0l5.275-6.157c.024-.026.029-.062.052-.091H-8.97A8.971,8.971,0,0,0,0,0Z" transform="translate(719.607 632.647)" fill="none" stroke="#1d1d1b" stroke-width="1.3"/>
    <path id="Tracé_40" data-name="Tracé 40" d="M0,0C-1.472-.447-1.765-2.241-.351-2.85L36.754-19.081c2.883-1.272,4.927.3,4.62,2.4L36.967,13.65a3.64,3.64,0,0,1-5.7,2.54c-4.67-3.32-10.091-7.176-13.088-9.31a2.4,2.4,0,0,1-.3-3.64C20.688.406,26-4.937,30.555-9.534a.584.584,0,0,0-.725-.91C24.131-6.443,17.368-1.7,13.52,1A7.7,7.7,0,0,1,6.846,2.08Z" transform="translate(656.338 605.07)"/>
  </g>
</svg>
