<svg xmlns="http://www.w3.org/2000/svg" width="80.338" height="87.152" viewBox="0 0 80.338 87.152">
  <g id="Groupe_3413" data-name="Groupe 3413" transform="translate(-1273.336 -197.609)">
    <path id="Tracé_29" data-name="Tracé 29" d="M0,0V-61.1a8.971,8.971,0,0,0-8.97-8.97h-61.1a8.971,8.971,0,0,0-8.97,8.97V0a8.971,8.971,0,0,0,8.97,8.97h24.052c.024.029.029.065.052.091l5.278,6.157a1.488,1.488,0,0,0,2.335,0l5.275-6.157c.024-.026.029-.062.052-.091H-8.97A8.971,8.971,0,0,0,0,0" transform="translate(1353.023 268.328)" fill="#fff"/>
    <path id="Tracé_30" data-name="Tracé 30" d="M0,0V-61.1a8.971,8.971,0,0,0-8.97-8.97h-61.1a8.971,8.971,0,0,0-8.97,8.97V0a8.971,8.971,0,0,0,8.97,8.97h24.052c.024.029.029.065.052.091l5.278,6.157a1.488,1.488,0,0,0,2.335,0l5.275-6.157c.024-.026.029-.062.052-.091H-8.97A8.971,8.971,0,0,0,0,0Z" transform="translate(1353.023 268.328)" fill="none" stroke="#1d1d1b" stroke-width="1.3"/>
    <path id="Tracé_31" data-name="Tracé 31" d="M0,0H-21.668a2.109,2.109,0,0,1-2.109-2.109V-44.283a2.109,2.109,0,0,1,2.109-2.109H0a2.109,2.109,0,0,1,2.109,2.109V-2.109A2.109,2.109,0,0,1,0,0" transform="translate(1323.135 258.676)"/>
    <path id="Tracé_32" data-name="Tracé 32" d="M0,0A2.072,2.072,0,0,0-2.07,2.07V43.932A2.072,2.072,0,0,0,0,46H21.154a2.071,2.071,0,0,0,2.069-2.07V2.07A2.071,2.071,0,0,0,21.154,0ZM21.154,47.187H0a3.26,3.26,0,0,1-3.258-3.255V2.07A3.261,3.261,0,0,1,0-1.186H21.154A3.261,3.261,0,0,1,24.411,2.07V43.932a3.26,3.26,0,0,1-3.257,3.255" transform="translate(1301.872 212.637)"/>
    <path id="Tracé_33" data-name="Tracé 33" d="M0,0H-11.978a.592.592,0,0,1-.593-.593.593.593,0,0,1,.593-.593H0a.593.593,0,0,1,.593.593A.592.592,0,0,1,0,0" transform="translate(1318.438 215.518)" fill="#fff"/>
    <path id="Tracé_34" data-name="Tracé 34" d="M1274.337-813.982h80.337v-87.151h-80.337Z" transform="translate(-1 1098.742)" fill="none"/>
  </g>
</svg>
