<svg xmlns="http://www.w3.org/2000/svg" xmlns:xlink="http://www.w3.org/1999/xlink" width="94.535" height="116" viewBox="0 0 94.535 116">
  <defs>
    <clipPath id="clip-path">
      <rect id="Rectangle_1" data-name="Rectangle 1" width="94.535" height="116" transform="translate(111.737 -953.721)" fill="none"/>
    </clipPath>
    <clipPath id="clip-path-2">
      <path id="Tracé_10" data-name="Tracé 10" d="M189.585-946l-61.377.385.421,66.583,61.377-.389Z" fill="none"/>
    </clipPath>
  </defs>
  <g id="Groupe_14" data-name="Groupe 14" transform="translate(-111.737 953.721)">
    <g id="Groupe_13" data-name="Groupe 13" clip-path="url(#clip-path)">
      <g id="Groupe_10" data-name="Groupe 10" clip-path="url(#clip-path-2)">
        <g id="Groupe_7" data-name="Groupe 7" transform="translate(189.429 -891.972)">
          <path id="Tracé_7" data-name="Tracé 7" d="M0,0-.294-46.678a6.855,6.855,0,0,0-6.9-6.809l-46.677.3a6.855,6.855,0,0,0-6.81,6.9l.3,46.677a6.853,6.853,0,0,0,6.9,6.81l18.376-.116c.018.022.022.05.04.068l4.062,4.68a1.137,1.137,0,0,0,1.784-.012l4-4.73c.018-.019.022-.047.04-.069L-6.809,6.9A6.854,6.854,0,0,0,0,0" fill="#fff"/>
        </g>
        <g id="Groupe_8" data-name="Groupe 8" transform="translate(189.429 -891.972)">
          <path id="Tracé_8" data-name="Tracé 8" d="M0,0-.294-46.678a6.855,6.855,0,0,0-6.9-6.809l-46.677.3a6.855,6.855,0,0,0-6.81,6.9l.3,46.677a6.853,6.853,0,0,0,6.9,6.81l18.376-.116c.018.022.022.05.04.068l4.062,4.68a1.137,1.137,0,0,0,1.784-.012l4-4.73c.018-.019.022-.047.04-.069L-6.809,6.9A6.854,6.854,0,0,0,0,0"/>
        </g>
        <g id="Groupe_9" data-name="Groupe 9" transform="translate(189.429 -891.972)">
          <path id="Tracé_9" data-name="Tracé 9" d="M0,0-.294-46.678a6.855,6.855,0,0,0-6.9-6.809l-46.677.3a6.855,6.855,0,0,0-6.81,6.9l.3,46.677a6.853,6.853,0,0,0,6.9,6.81l18.376-.116c.018.022.022.05.04.068l4.062,4.68a1.137,1.137,0,0,0,1.784-.012l4-4.73c.018-.019.022-.047.04-.069L-6.809,6.9A6.854,6.854,0,0,0,0,0Z" fill="none" stroke="#1d1d1b" stroke-width="0.993"/>
        </g>
      </g>
      <g id="Groupe_11" data-name="Groupe 11" transform="translate(163.328 -935.857)">
        <path id="Tracé_11" data-name="Tracé 11" d="M0,0H-6.192L-3.2,7.985,9.668,38.291h7.059Z" fill="#fff"/>
      </g>
      <g id="Groupe_12" data-name="Groupe 12" transform="translate(140.066 -897.545)">
        <path id="Tracé_12" data-name="Tracé 12" d="M0,0H7.981L3.957-9.413Z" fill="#fff"/>
      </g>
    </g>
  </g>
</svg>
