<svg xmlns="http://www.w3.org/2000/svg" width="80.338" height="87.154" viewBox="0 0 80.338 87.154">
  <g id="Groupe_3416" data-name="Groupe 3416" transform="translate(-955.948 -561.927)">
    <path id="Tracé_45" data-name="Tracé 45" d="M0,0V-61.1a8.971,8.971,0,0,0-8.97-8.97h-61.1a8.971,8.971,0,0,0-8.97,8.97V0a8.971,8.971,0,0,0,8.97,8.97h24.052c.024.029.029.065.052.091l5.278,6.157a1.488,1.488,0,0,0,2.335,0l5.275-6.157c.024-.026.029-.062.052-.091H-8.97A8.971,8.971,0,0,0,0,0" transform="translate(1035.635 632.647)" fill="#fff"/>
    <path id="Tracé_46" data-name="Tracé 46" d="M0,0V-61.1a8.971,8.971,0,0,0-8.97-8.97h-61.1a8.971,8.971,0,0,0-8.97,8.97V0a8.971,8.971,0,0,0,8.97,8.97h24.052c.024.029.029.065.052.091l5.278,6.157a1.488,1.488,0,0,0,2.335,0l5.275-6.157c.024-.026.029-.062.052-.091H-8.97A8.971,8.971,0,0,0,0,0Z" transform="translate(1035.635 632.647)" fill="none" stroke="#1d1d1b" stroke-width="1.3"/>
    <path id="Tracé_47" data-name="Tracé 47" d="M0,0H-26.172a.835.835,0,0,1-.686-.361.834.834,0,0,1-.091-.773C-22.428-12.88-13.8-22.659-13.71-22.755a.863.863,0,0,1,1.248,0c.086.1,8.718,9.875,13.239,21.621a.834.834,0,0,1-.091.773A.827.827,0,0,1,0,0" transform="translate(1008.309 600.14)"/>
    <path id="Tracé_48" data-name="Tracé 48" d="M0,0A16.517,16.517,0,0,1-15.457-10.553a.832.832,0,0,1,.127-.832.835.835,0,0,1,.788-.294,8.305,8.305,0,0,0,1.344.122H13.2a8.3,8.3,0,0,0,1.342-.122.832.832,0,0,1,.788.294.832.832,0,0,1,.127.832A16.514,16.514,0,0,1,0,0" transform="translate(995.223 627.841)"/>
    <path id="Tracé_49" data-name="Tracé 49" d="M0,0H-39.325A2.134,2.134,0,0,1-41.46-2.132V-14.643a2.134,2.134,0,0,1,2.135-2.132H0a2.131,2.131,0,0,1,2.132,2.132V-2.132A2.131,2.131,0,0,1,0,0" transform="translate(1015.272 616.406)" fill="#fff"/>
    <path id="Tracé_50" data-name="Tracé 50" d="M0,0H-34.325a2.131,2.131,0,0,1-2.132-2.132v-10a2.134,2.134,0,0,1,2.132-2.135H0a2.134,2.134,0,0,1,2.132,2.135v10A2.131,2.131,0,0,1,0,0" transform="translate(1012.489 615.156)"/>
    <path id="Tracé_51" data-name="Tracé 51" d="M956.948-449.663h80.338v-87.152H956.948Z" transform="translate(-1 1098.742)" fill="none"/>
    <text id="CMYK" transform="translate(979.977 611.848)" fill="#fff" font-size="11" font-family="Poppins-Light, Poppins" font-weight="300"><tspan x="0" y="0">CMYK</tspan></text>
  </g>
</svg>
